PathFileType	3	(X/Y/Z)	D:\Vicon Database\Healthy Subjects\S0040\Jan. 30, 2020\Force Plate Walk 3.trc
DataRate	CameraRate	NumFrames	NumMarkers	Units	OrigDataRate	OrigDataStartFrame	OrigNumFrames
100.0	100.0	4	53	mm	100.0	443	290	
Frame#	Time	right_foot_cluster2			right_foot_cluster3			sternum_cluster1			sternum_cluster2			sternum_cluster3			left_asis			right_asis			left_psis			right_psis			sacrum_cluster1			sacrum_cluster2			sacrum_cluster3			left_lat_femoral_epicondyle			left_anterior_thigh15			left_anterior_thigh25			left_anterior_thigh50			left_lateral_thigh25			left_lateral_thigh50			left_thigh_cluster1			left_thigh_cluster2			left_thigh_cluster3			left_fibular_head			left_tibial_tuberosity			left_anterior_shank30			left_lateral_malleolus			left_shank_cluster1			left_shank_cluster2			left_shank_cluster3			left_heel			left_metatarsal2			left_foot_cluster1			left_foot_cluster2			left_foot_cluster3			right_lat_femoral_epicondyle			right_anterior_thigh15			right_anterior_thigh25			right_anterior_thigh50			right_lateral_thigh25			right_lateral_thigh50			right_thigh_cluster1			right_thigh_cluster2			right_thigh_cluster3			right_fibular_head			right_tibial_tuberosity			right_lateral_distal_shank			right_anterior_shank30			right_lateral_malleolus			right_shank_cluster1			right_shank_cluster2			right_shank_cluster3			right_heel			right_metatarsal2			right_foot_cluster1			
		X1	Y1	Z1	X2	Y2	Z2	X3	Y3	Z3	X4	Y4	Z4	X5	Y5	Z5	X6	Y6	Z6	X7	Y7	Z7	X8	Y8	Z8	X9	Y9	Z9	X10	Y10	Z10	X11	Y11	Z11	X12	Y12	Z12	X13	Y13	Z13	X14	Y14	Z14	X15	Y15	Z15	X16	Y16	Z16	X17	Y17	Z17	X18	Y18	Z18	X19	Y19	Z19	X20	Y20	Z20	X21	Y21	Z21	X22	Y22	Z22	X23	Y23	Z23	X24	Y24	Z24	X25	Y25	Z25	X26	Y26	Z26	X27	Y27	Z27	X28	Y28	Z28	X29	Y29	Z29	X30	Y30	Z30	X31	Y31	Z31	X32	Y32	Z32	X33	Y33	Z33	X34	Y34	Z34	X35	Y35	Z35	X36	Y36	Z36	X37	Y37	Z37	X38	Y38	Z38	X39	Y39	Z39	X40	Y40	Z40	X41	Y41	Z41	X42	Y42	Z42	X43	Y43	Z43	X44	Y44	Z44	X45	Y45	Z45	X46	Y46	Z46	X47	Y47	Z47	X48	Y48	Z48	X49	Y49	Z49	X50	Y50	Z50	X51	Y51	Z51	X52	Y52	Z52	X53	Y53	Z53	
443	4.42	1746.5649	148.00084	-205.61053	1740.6465	146.27422	-243.02216	1477.4362	1435.2958	-149.87662	1466.4978	1407.0033	-142.16165	1469.691	1410.2101	-180.10416	1488.2244	1067.609	-31.41119	1494.8743	1058.2848	-283.99341	1657.3518	1076.4816	-75.560707	1660.813	1071.0366	-194.0607	1667.265	1130.5348	-145.09904	1674.9137	1105.204	-155.17931	1677.0118	1102.2506	-116.04399	1461.5458	543.36932	-11.108529	1385.7384	639.32739	-65.51178	1385.984	725.24518	-47.451923	1414.9639	859.13959	-27.248522	1489.3005	694.04279	15.2481	1510.5272	840.29608	44.220776	1505.1155	793.69867	49.760769	1502.9093	764.16168	45.566692	1468.0892	779.59015	47.651875	1453.2637	463.64331	-8.0607758	1401.4537	456.68259	-66.716278	1448.0188	206.0179	-83.380341	1510.7841	97.957123	-55.132149	1409.0271	400.53949	-96.804977	1406.0461	372.54626	-89.505638	1424.0269	375.38202	-123.52915	1584.9248	64.087708	-91.89975	1366.2299	70.099907	-92.949707	1427.6359	117.16908	-86.914314	1403.4073	101.57683	-76.399124	1399.4685	106.87215	-114.49928	1475.7988	514.94427	-301.34918	1393.9432	601.49591	-249.19408	1393.447	686.73724	-245.11749	1422.55	817.16504	-247.39445	1496.2893	666.04034	-316.43008	1527.7777	810.3338	-333.88956	1524.5659	759.97571	-342.20166	1508.618	735.26898	-340.46506	1546.2269	728.23254	-331.34625	1511.8894	467.31461	-307.09375	1475.9918	425.06812	-259.32938	1723.2775	309.13773	-283.49503	1683.2169	281.7388	-236.9978	1801.7411	240.87311	-267.89374	1535.5653	385.33862	-201.12592	1560.7535	372.6076	-194.92236	1548.2719	354.6691	-225.57799	1872.0961	289.99893	-238.43907	1758.9081	104.105	-210.7179	1745.2538	174.80927	-216.38692
444	4.43	1706.3939	147.54042	-205.26474	1701.274	146.11499	-242.43901	1462.3451	1437.2169	-150.20164	1451.4379	1408.9382	-142.65479	1454.8595	1412.2013	-180.50859	1473.5369	1069.3892	-31.401236	1481.1332	1060.8258	-283.72043	1642.5947	1078.5796	-75.107178	1646.6708	1073.3395	-193.29303	1652.9465	1133.0493	-144.31804	1660.0139	1107.4163	-154.55612	1662.527	1104.7183	-115.18909	1456.2827	543.78558	-11.627963	1378.8691	638.1134	-66.492058	1376.8462	724.37177	-47.94025	1402.9359	858.7804	-26.759056	1480.7998	694.97382	14.836594	1498.9794	841.46381	44.087273	1495.1686	794.66333	49.139458	1493.2351	765.3866	45.385448	1458.3754	780.22247	47.1917	1449.291	463.6434	-8.3961315	1397.5649	455.9451	-67.232201	1446.5212	205.81146	-83.709137	1510.3433	98.191727	-55.397373	1405.7998	399.92459	-97.035728	1403.0195	372.05692	-89.86364	1420.7057	375.22604	-123.82936	1584.847	64.440315	-91.874969	1365.9165	69.622948	-93.106682	1427.1711	117.05405	-87.202904	1403.0198	101.3872	-76.607224	1399.1357	106.73464	-114.63705	1448.6709	519.20789	-300.72751	1369.4553	608.0578	-249.17093	1371.4961	693.25751	-245.42502	1404.7136	822.61786	-247.78133	1475.4812	669.33661	-315.47711	1510.3282	813.05182	-333.09268	1506.2068	762.28333	-341.13742	1489.9172	738.42493	-340.44839	1526.1156	729.79865	-330.25058	1482.6567	469.93808	-305.83545	1445.4813	429.34329	-257.99249	1689.4314	305.73642	-281.76935	1650.1189	281.97635	-233.78938	1767.0758	237.5462	-265.86322	1505.4059	390.33813	-198.9803	1530.2776	377.31781	-192.54771	1516.3071	358.98743	-222.08963	1840.6962	281.82919	-235.31989	1716.5522	102.99081	-210.78397	1705.6816	175.19946	-216.35963
445	4.44	1664.9635	146.42801	-205.48788	1660.3209	145.94412	-242.58733	1447.2579	1439.1298	-150.54997	1436.5802	1410.726	-143.13969	1440.1826	1413.9277	-180.98993	1459.0018	1071.0408	-31.295084	1467.3643	1063.379	-283.38495	1627.9501	1080.767	-74.608765	1632.5663	1075.8184	-192.7077	1638.7679	1135.5936	-143.49251	1645.5177	1109.5833	-153.93649	1647.1017	1106.559	-114.66856	1451.219	544.09735	-12.087605	1371.9495	636.88019	-67.36013	1367.9991	723.25793	-48.516499	1391.0487	858.33984	-26.376776	1472.6454	695.6936	14.40274	1487.6266	842.43884	43.800716	1484.5966	795.6803	49.070164	1483.5223	766.17334	45.01675	1448.4714	780.4469	46.803082	1445.3779	463.57462	-8.771924	1393.959	455.16016	-67.956505	1445.1406	205.71642	-84.128304	1509.8904	98.458771	-55.676472	1402.646	399.55212	-97.668839	1400.1968	371.59796	-90.355988	1418.0067	374.93698	-124.39553	1584.6991	64.81105	-91.977371	1365.5791	69.166351	-93.287094	1426.9135	116.86855	-87.326157	1402.7094	101.16815	-76.87796	1398.8254	106.28934	-115.00889	1422.3519	523.71375	-300.01062	1345.6782	614.86328	-249.47076	1350.0891	700.0011	-245.89374	1387.2708	828.1673	-248.18631	1453.9673	673.30548	-314.51666	1494.4584	815.82855	-332.77435	1488.2693	765.14758	-340.54575	1470.6389	742.02167	-340.42371	1506.0243	731.61096	-328.85852	1453.9658	472.81381	-304.86234	1415.8707	434.09143	-256.54443	1656.3895	302.44949	-279.78299	1617.0656	280.75449	-230.94589	1732.667	232.59843	-263.78906	1475.3403	395.61646	-196.85539	1499.7209	381.87677	-190.12489	1484.8802	363.12308	-218.9559	1808.4269	271.20337	-231.98015	1672.376	101.36142	-211.60606	1665.6782	175.04776	-216.59834
446	4.45	1622.1799	145.16629	-205.57965	1617.7629	145.66058	-242.99644	1432.8824	1440.9203	-151.04358	1421.6101	1412.4933	-143.51605	1425.3148	1415.8535	-181.39261	1444.5791	1072.5336	-31.108385	1453.491	1065.9525	-282.90335	1613.5878	1083.1183	-74.368454	1618.5702	1078.2905	-192.30609	1624.4684	1137.8983	-143.054	1631.4404	1111.9353	-153.41235	1632.9342	1108.9889	-114.07092	1446.238	544.20685	-12.490705	1365.3124	635.4649	-67.910156	1358.575	722.14886	-48.838547	1379.2531	857.6369	-26.104578	1464.8718	696.08002	13.748028	1476.3362	843.21222	43.485004	1474.6785	796.17438	48.449268	1473.7072	766.69379	44.357918	1438.4242	780.28247	46.486717	1441.1836	463.62579	-9.2691956	1390.4855	454.5571	-68.627708	1443.7411	205.63078	-84.569321	1509.5033	98.784302	-56.020554	1399.8826	399.29108	-98.006973	1397.6956	371.23209	-90.865395	1415.959	374.44601	-124.79099	1584.5947	65.104752	-92.114944	1365.3479	68.744438	-93.423958	1426.6305	116.74674	-87.569489	1402.4128	101.0463	-77.11776	1398.5367	106.07371	-115.21947	1396.9152	528.57074	-299.19006	1322.5372	621.81085	-249.82745	1329.2562	706.86591	-246.28806	1369.9792	833.74469	-248.23218	1432.5132	677.40863	-314.35144	1477.626	818.98633	-332.52759	1469.6367	768.06372	-340.22583	1451.5846	745.13684	-339.35645	1487.7952	735.03363	-328.76688	1426.1312	475.68155	-303.5965	1387.2297	439.2814	-255.05281	1622.8754	298.51544	-277.95782	1582.5145	278.95602	-228.99982	1697.4825	226.64203	-261.82578	1445.6218	400.35855	-194.89543	1469.5258	386.05792	-188.00604	1453.7661	366.98541	-215.99168	1775.2771	259.96735	-227.87654	1627.1005	99.570976	-212.99446	1626.4733	172.00275	-216.00215
